<?xml version="1.0" encoding="UTF-8"?>
<svg width="800" height="800" viewBox="0 0 800 800" fill="none" xmlns="http://www.w3.org/2000/svg">
  <!-- Background Circle -->
  <circle cx="400" cy="400" r="380" fill="url(#gradient1)" fill-opacity="0.1"/>
  
  <!-- Decorative Elements -->
  <circle cx="400" cy="400" r="200" stroke="url(#gradient2)" stroke-width="2" stroke-dasharray="4 4"/>
  <circle cx="400" cy="400" r="300" stroke="url(#gradient2)" stroke-width="2" stroke-dasharray="4 4"/>
  
  <!-- Central Icon -->
  <g filter="url(#glow)">
    <path d="M400 250C339.5 250 290 299.5 290 360C290 420.5 339.5 470 400 470C460.5 470 510 420.5 510 360C510 299.5 460.5 250 400 250ZM400 440C355.5 440 320 404.5 320 360C320 315.5 355.5 280 400 280C444.5 280 480 315.5 480 360C480 404.5 444.5 440 400 440Z" fill="url(#gradient3)"/>
    <path d="M400 300C367.5 300 340 327.5 340 360C340 392.5 367.5 420 400 420C432.5 420 460 392.5 460 360C460 327.5 432.5 300 400 300ZM400 390C383.5 390 370 376.5 370 360C370 343.5 383.5 330 400 330C416.5 330 430 343.5 430 360C430 376.5 416.5 390 400 390Z" fill="url(#gradient4)"/>
  </g>
  
  <!-- Floating Elements -->
  <g>
    <circle cx="200" cy="200" r="20" fill="url(#gradient3)" fill-opacity="0.6"/>
    <circle cx="600" cy="600" r="30" fill="url(#gradient4)" fill-opacity="0.6"/>
    <circle cx="650" cy="250" r="25" fill="url(#gradient3)" fill-opacity="0.6"/>
    <circle cx="150" cy="550" r="15" fill="url(#gradient4)" fill-opacity="0.6"/>
  </g>
  
  <!-- Gradients -->
  <defs>
    <linearGradient id="gradient1" x1="0" y1="0" x2="800" y2="800" gradientUnits="userSpaceOnUse">
      <stop offset="0%" stop-color="#00E1F4"/>
      <stop offset="100%" stop-color="#6F4CFF"/>
    </linearGradient>
    
    <linearGradient id="gradient2" x1="400" y1="0" x2="400" y2="800" gradientUnits="userSpaceOnUse">
      <stop offset="0%" stop-color="#00E1F4"/>
      <stop offset="100%" stop-color="#6F4CFF"/>
    </linearGradient>
    
    <linearGradient id="gradient3" x1="290" y1="250" x2="510" y2="470" gradientUnits="userSpaceOnUse">
      <stop offset="0%" stop-color="#00E1F4"/>
      <stop offset="100%" stop-color="#6F4CFF"/>
    </linearGradient>
    
    <linearGradient id="gradient4" x1="340" y1="300" x2="460" y2="420" gradientUnits="userSpaceOnUse">
      <stop offset="0%" stop-color="#6F4CFF"/>
      <stop offset="100%" stop-color="#00E1F4"/>
    </linearGradient>
    
    <filter id="glow" x="-50%" y="-50%" width="200%" height="200%">
      <feGaussianBlur stdDeviation="10" result="blur"/>
      <feComposite in="SourceGraphic" in2="blur" operator="over"/>
    </filter>
  </defs>
</svg> 