<?xml version="1.0" encoding="UTF-8"?>
<svg width="400" height="300" viewBox="0 0 400 300" fill="none" xmlns="http://www.w3.org/2000/svg">
  <!-- Background -->
  <rect width="400" height="300" fill="url(#bg-gradient)" fill-opacity="0.1"/>
  
  <!-- Platform Icons -->
  <g filter="url(#glow)">
    <!-- Desktop -->
    <rect x="100" y="100" width="80" height="60" rx="4" fill="url(#platform1-gradient)"/>
    <rect x="110" y="110" width="60" height="35" rx="2" fill="#0A101F"/>
    <rect x="120" y="150" width="40" height="4" rx="2" fill="#0A101F"/>
    
    <!-- Tablet -->
    <rect x="200" y="110" width="50" height="70" rx="4" fill="url(#platform2-gradient)"/>
    <rect x="205" y="115" width="40" height="55" rx="2" fill="#0A101F"/>
    <circle cx="225" cy="175" r="2" fill="#0A101F"/>
    
    <!-- Mobile -->
    <rect x="270" y="120" width="30" height="50" rx="4" fill="url(#platform3-gradient)"/>
    <rect x="273" y="123" width="24" height="40" rx="2" fill="#0A101F"/>
    <circle cx="285" cy="167" r="2" fill="#0A101F"/>
  </g>
  
  <!-- Connecting Lines -->
  <g>
    <path d="M140 80C180 80 220 120 260 120" stroke="url(#line-gradient)" stroke-width="1"/>
    <path d="M140 180C180 180 220 140 260 140" stroke="url(#line-gradient)" stroke-width="1"/>
    
    <!-- Decorative Dots -->
    <circle cx="140" cy="80" r="4" fill="url(#dot-gradient)"/>
    <circle cx="260" cy="120" r="4" fill="url(#dot-gradient)"/>
    <circle cx="140" cy="180" r="4" fill="url(#dot-gradient)"/>
    <circle cx="260" cy="140" r="4" fill="url(#dot-gradient)"/>
  </g>
  
  <!-- Gradients -->
  <defs>
    <linearGradient id="bg-gradient" x1="0" y1="0" x2="400" y2="300" gradientUnits="userSpaceOnUse">
      <stop stop-color="#00E1F4" stop-opacity="0.2"/>
      <stop offset="1" stop-color="#6F4CFF" stop-opacity="0.2"/>
    </linearGradient>
    
    <linearGradient id="platform1-gradient" x1="100" y1="100" x2="180" y2="160" gradientUnits="userSpaceOnUse">
      <stop stop-color="#00E1F4"/>
      <stop offset="1" stop-color="#6F4CFF"/>
    </linearGradient>
    
    <linearGradient id="platform2-gradient" x1="200" y1="110" x2="250" y2="180" gradientUnits="userSpaceOnUse">
      <stop stop-color="#00E1F4"/>
      <stop offset="1" stop-color="#6F4CFF"/>
    </linearGradient>
    
    <linearGradient id="platform3-gradient" x1="270" y1="120" x2="300" y2="170" gradientUnits="userSpaceOnUse">
      <stop stop-color="#00E1F4"/>
      <stop offset="1" stop-color="#6F4CFF"/>
    </linearGradient>
    
    <linearGradient id="line-gradient" x1="140" y1="80" x2="260" y2="180" gradientUnits="userSpaceOnUse">
      <stop stop-color="#00E1F4"/>
      <stop offset="1" stop-color="#6F4CFF"/>
    </linearGradient>
    
    <linearGradient id="dot-gradient" x1="0" y1="0" x2="8" y2="8" gradientUnits="userSpaceOnUse">
      <stop stop-color="#00E1F4"/>
      <stop offset="1" stop-color="#6F4CFF"/>
    </linearGradient>
    
    <filter id="glow" x="-10" y="-10" width="420" height="320" filterUnits="userSpaceOnUse">
      <feGaussianBlur stdDeviation="4" result="blur"/>
      <feComposite in="SourceGraphic" in2="blur" operator="over"/>
    </filter>
  </defs>
</svg> 